<?xml version="1.0" standalone="no"?><!DOCTYPE svg PUBLIC "-//W3C//DTD SVG 1.1//EN" "http://www.w3.org/Graphics/SVG/1.1/DTD/svg11.dtd"><svg t="1612161789112" class="icon" viewBox="0 0 1024 1024" version="1.1" xmlns="http://www.w3.org/2000/svg" p-id="2141" width="40" height="40" xmlns:xlink="http://www.w3.org/1999/xlink"><defs><style type="text/css"></style></defs><path d="M767.968 193.782h42.688v194.906h-42.688zM213.344 193.782h42.624v194.906h-42.624z" fill="#CCD1D9" p-id="2142"></path><path d="M843.718 170.688h-193.312l-58.75 117.75L447.782 0l-85.188 170.688H180.282v42.624h208.75l58.75-117.75L591.656 384l85.188-170.688h166.874z" fill="#FC6E51" p-id="2143"></path><path d="M853.344 405.312c0-11.75-9.562-21.312-21.376-21.312h-85.25c-11.812 0-21.376 9.562-21.376 21.312V616c0 11.782 9.562 21.312 21.376 21.312h85.25c11.812 0 21.376-9.532 21.376-21.312V405.312z" fill="#434A54" p-id="2144"></path><path d="M853.344 192c0 35.344-28.688 64-64 64-35.376 0-64-28.656-64-64s28.624-64 64-64c35.312 0 64 28.656 64 64z" fill="#E6E9ED" p-id="2145"></path><path d="M298.656 405.312c0-11.75-9.562-21.312-21.312-21.312H192.032c-11.75 0-21.312 9.562-21.312 21.312V616c0 11.782 9.562 21.312 21.312 21.312h85.312c11.75 0 21.312-9.532 21.312-21.312V405.312z" fill="#434A54" p-id="2146"></path><path d="M938.656 533.312c0-11.75-9.562-21.312-21.312-21.312H106.656c-11.75 0-21.312 9.562-21.312 21.312v469.376c0 11.75 9.562 21.312 21.312 21.312h810.688c11.75 0 21.312-9.562 21.312-21.312V533.312z" fill="#FFCE54" p-id="2147"></path><path d="M278.282 874.688c10.812-119.438 111.5-213.376 233.688-213.376 122.25 0 222.938 93.938 233.75 213.376H278.282z" fill="#F5F7FA" p-id="2148"></path><path d="M511.968 640c-141.376 0-256 114.624-256 256h512c0-141.376-114.562-256-256-256z m-150.812 105.156c40.25-40.282 93.876-62.468 150.812-62.468 57 0 110.562 22.188 150.876 62.468 30.062 30.032 50 67.468 58.25 108.156H302.906c8.188-40.688 28.188-78.124 58.25-108.156z" fill="#F6BB42" p-id="2149"></path><path d="M511.968 768c-11.75 0-21.312 9.562-21.312 21.312v64h42.688v-64c0-11.75-9.562-21.312-21.376-21.312z" fill="#434A54" p-id="2150"></path><path d="M298.656 192c0 35.344-28.624 64-64 64-35.312 0-64-28.656-64-64s28.688-64 64-64c35.376 0 64 28.656 64 64z" fill="#E6E9ED" p-id="2151"></path></svg>